<svg xmlns="http://www.w3.org/2000/svg" viewBox="0 0 24 24"><path d="M11.62 3.38 7 8H4.5A2.5 2.5 0 0 0 2 10.5v3A2.5 2.5 0 0 0 4.5 16H7l4.62 4.62c.85.85 2.38.21 2.38-1.07V4.46c0-1.28-1.54-1.92-2.38-1.07ZM12 18.17l-3.88-3.88a1 1 0 0 0-.71-.29H4.5a.5.5 0 0 1-.5-.5v-3c0-.28.22-.5.5-.5h2.91c.27 0 .52-.11.71-.29L12 5.83v12.34ZM20.18 5.94a1 1 0 1 0-1.67 1.11 9 9 0 0 1 0 9.92c-.3.46-.18 1.08.28 1.39.46.3 1.08.18 1.39-.28a10.95 10.95 0 0 0 0-12.12ZM15.61 8.05a1 1 0 0 0-.34 1.37 4.96 4.96 0 0 1 0 5.15 1 1 0 0 0 .34 1.37 1 1 0 0 0 1.37-.34 7 7 0 0 0 0-7.22 1 1 0 0 0-1.37-.34Z" fill="#000"></path></svg>